<svg width="22" height="20" viewBox="0 0 22 20" fill="none" xmlns="http://www.w3.org/2000/svg">
<mask id="mask0_2_177" style="mask-type:luminance" maskUnits="userSpaceOnUse" x="0" y="-1" width="22" height="21">
<path fill-rule="evenodd" clip-rule="evenodd" d="M0.666672 -0.00012207H21.1392V19.5009H0.666672V-0.00012207Z" fill="white"/>
</mask>
<g mask="url(#mask0_2_177)">
<path fill-rule="evenodd" clip-rule="evenodd" d="M2.49037 9.123C3.89237 13.485 9.43137 17.012 10.9034 17.885C12.3804 17.003 17.9594 13.437 19.3164 9.127C20.2074 6.341 19.3804 2.812 16.0944 1.753C14.5024 1.242 12.6454 1.553 11.3634 2.545C11.0954 2.751 10.7234 2.755 10.4534 2.551C9.09537 1.53 7.32137 1.231 5.70437 1.753C2.42337 2.811 1.59937 6.34 2.49037 9.123ZM10.9044 19.501C10.7804 19.501 10.6574 19.471 10.5454 19.41C10.2324 19.239 2.85937 15.175 1.06237 9.581C1.06137 9.581 1.06137 9.58 1.06137 9.58C-0.066631 6.058 1.18937 1.632 5.24437 0.324996C7.14837 -0.291004 9.22337 -0.020004 10.9014 1.039C12.5274 0.010996 14.6874 -0.273004 16.5534 0.324996C20.6124 1.634 21.8724 6.059 20.7454 9.58C19.0064 15.11 11.5794 19.235 11.2644 19.408C11.1524 19.47 11.0284 19.501 10.9044 19.501Z" fill="#888888"/>
</g>
</svg>
